<svg width="189" height="99" fill="none" xmlns="http://www.w3.org/2000/svg"><path d="M66.293 8.307l-1.041-.415 6.851-4.98c-.15.02-.35.031-.599.036-.24.003-.503-.002-.786-.015a14.455 14.455 0 01-.858-.062 8.326 8.326 0 01-.805-.116l.918-.667c.284.05.599.094.945.128a20.417 20.417 0 002.14.088c.35-.006.665-.021.948-.046l.394.157-8.107 5.892zm12.888.64c-.664.482-1.322.881-1.974 1.198a9.466 9.466 0 01-1.896.706 6.427 6.427 0 01-1.76.2 4.601 4.601 0 01-1.56-.316c-.458-.183-.78-.408-.966-.678-.179-.27-.223-.576-.133-.918.09-.342.314-.715.674-1.12.363-.406.86-.839 1.49-1.297a14.898 14.898 0 012.033-1.256 9.722 9.722 0 011.923-.733 6.16 6.16 0 011.772-.208c.57.02 1.102.128 1.597.325 1.91.762 1.51 2.127-1.2 4.096zm-1.156-.362c2.257-1.64 2.769-2.705 1.537-3.196-1.3-.518-3.098.057-5.394 1.726-2.142 1.557-2.576 2.59-1.302 3.098 1.257.5 2.977-.041 5.16-1.628zm8.166 3.157a13.12 13.12 0 01-1.974 1.198 9.463 9.463 0 01-1.896.707 6.426 6.426 0 01-1.76.2A4.604 4.604 0 0179 13.53c-.458-.182-.78-.408-.966-.678-.179-.27-.223-.576-.133-.918.09-.341.314-.714.674-1.119.363-.407.86-.84 1.49-1.298a14.887 14.887 0 012.033-1.255 9.722 9.722 0 011.923-.734 6.16 6.16 0 011.772-.208 4.71 4.71 0 011.597.326c1.91.761 1.51 2.126-1.2 4.096zm-1.155-.361c2.256-1.64 2.768-2.706 1.536-3.197-1.3-.518-3.098.057-5.394 1.727-2.142 1.556-2.576 2.589-1.302 3.097 1.257.501 2.977-.041 5.16-1.627zm2.287 5.312l-1.04-.415 6.85-4.98c-.15.02-.35.03-.599.035a14.424 14.424 0 01-1.644-.077 8.31 8.31 0 01-.805-.115l.918-.667c.284.05.6.093.945.128a20.38 20.38 0 002.14.088c.35-.006.666-.021.948-.046l.394.157-8.107 5.892zm12.888.64c-.663.482-1.321.881-1.973 1.198a9.473 9.473 0 01-1.897.706 6.422 6.422 0 01-1.76.2 4.6 4.6 0 01-1.56-.316c-.457-.183-.78-.409-.966-.678-.179-.27-.223-.577-.133-.918.09-.342.315-.715.674-1.12.364-.406.86-.839 1.49-1.297a14.845 14.845 0 012.034-1.256 9.72 9.72 0 011.923-.733c.62-.16 1.21-.23 1.771-.208.57.02 1.102.128 1.598.325 1.909.761 1.509 2.127-1.201 4.096zm-1.155-.362c2.256-1.64 2.768-2.705 1.536-3.196-1.3-.519-3.097.057-5.394 1.726-2.142 1.557-2.576 2.59-1.302 3.097 1.258.502 2.978-.04 5.16-1.627zm2.288 5.313l-1.042-.415 6.852-4.98c-.151.019-.35.03-.599.035-.241.003-.503-.001-.786-.015a14.57 14.57 0 01-.859-.062 8.405 8.405 0 01-.805-.115l.918-.668c.284.051.599.094.945.128a20.549 20.549 0 002.141.088c.349-.006.665-.02.948-.045l.393.157-8.106 5.892zm12.887.639a13.1 13.1 0 01-1.973 1.198 9.46 9.46 0 01-1.897.707 6.422 6.422 0 01-1.76.2 4.595 4.595 0 01-1.56-.317c-.457-.182-.779-.408-.966-.677-.178-.27-.223-.577-.133-.919.09-.341.315-.714.675-1.119.363-.407.86-.84 1.49-1.297a14.807 14.807 0 012.033-1.256 9.707 9.707 0 011.923-.733c.619-.16 1.21-.23 1.772-.209a4.72 4.72 0 011.597.326c1.909.761 1.509 2.126-1.201 4.096zm-1.155-.361c2.256-1.64 2.768-2.706 1.536-3.197-1.299-.518-3.097.058-5.394 1.727-2.142 1.556-2.576 2.589-1.301 3.097 1.257.501 2.977-.041 5.159-1.627zm2.288 5.312l-1.041-.415 6.851-4.98c-.151.02-.35.031-.599.036a12.69 12.69 0 01-.786-.015 14.485 14.485 0 01-.859-.062 8.274 8.274 0 01-.804-.116l.918-.667c.284.05.599.093.945.128a20.51 20.51 0 002.14.088c.349-.006.665-.021.948-.046l.393.157-8.106 5.892zm12.888.64a13.15 13.15 0 01-1.974 1.198 9.475 9.475 0 01-1.896.706 6.429 6.429 0 01-1.761.2 4.605 4.605 0 01-1.56-.316c-.457-.183-.779-.409-.965-.678-.179-.27-.223-.576-.134-.918.09-.342.315-.715.675-1.12.363-.406.86-.839 1.49-1.297a14.816 14.816 0 012.033-1.256 9.707 9.707 0 011.923-.733 6.16 6.16 0 011.772-.208c.569.02 1.102.128 1.597.325 1.909.762 1.509 2.127-1.2 4.096zm-1.156-.362c2.256-1.64 2.769-2.705 1.537-3.196-1.3-.518-3.098.057-5.395 1.726-2.141 1.557-2.575 2.59-1.301 3.098 1.257.5 2.977-.042 5.159-1.628zm-76.172-8.674l-1.041-.415 6.85-4.98c-.15.02-.35.03-.598.035a14.514 14.514 0 01-1.645-.077 8.37 8.37 0 01-.804-.115l.917-.667c.284.05.6.093.946.128a20.373 20.373 0 002.14.088 14 14 0 00.948-.046l.393.157-8.106 5.892zm12.887.639c-.663.482-1.321.882-1.973 1.199a9.472 9.472 0 01-1.896.706 6.43 6.43 0 01-1.761.2 4.599 4.599 0 01-1.56-.317c-.457-.182-.779-.408-.966-.677-.178-.27-.223-.577-.133-.918.09-.342.315-.715.675-1.12.363-.406.86-.839 1.49-1.297.693-.504 1.37-.922 2.033-1.256a9.72 9.72 0 011.923-.733c.62-.16 1.21-.23 1.772-.209a4.72 4.72 0 011.597.326c1.91.761 1.509 2.127-1.2 4.096zm-1.155-.361c2.256-1.64 2.768-2.705 1.537-3.197-1.3-.518-3.098.058-5.395 1.727-2.142 1.557-2.575 2.59-1.301 3.097 1.257.502 2.977-.04 5.16-1.627zm2.288 5.313l-1.041-.416 6.851-4.98c-.15.02-.35.031-.599.036-.24.003-.503-.002-.786-.015a14.424 14.424 0 01-.858-.062 8.306 8.306 0 01-.805-.116l.918-.667c.284.051.599.094.945.128a20.489 20.489 0 002.14.088c.35-.006.665-.021.948-.045l.394.157-8.107 5.892zm12.888.639a13.12 13.12 0 01-1.974 1.198 9.467 9.467 0 01-1.896.707 6.426 6.426 0 01-1.76.2 4.602 4.602 0 01-1.56-.317c-.458-.182-.78-.408-.966-.678-.179-.27-.223-.576-.133-.918.09-.341.314-.714.674-1.119.363-.407.86-.84 1.49-1.298a14.887 14.887 0 012.033-1.255 9.72 9.72 0 011.923-.734 6.16 6.16 0 011.772-.208 4.71 4.71 0 011.597.326c1.91.761 1.51 2.126-1.2 4.096zm-1.156-.361c2.257-1.64 2.769-2.706 1.537-3.197-1.3-.518-3.098.057-5.394 1.727-2.142 1.556-2.576 2.589-1.302 3.097 1.257.501 2.977-.041 5.16-1.628zm8.166 3.156a13.12 13.12 0 01-1.974 1.198 9.473 9.473 0 01-1.896.707 6.422 6.422 0 01-1.76.2 4.6 4.6 0 01-1.56-.317c-.458-.182-.78-.408-.966-.677-.179-.27-.223-.577-.133-.919.09-.341.314-.714.674-1.119.363-.407.86-.84 1.49-1.297a14.8 14.8 0 012.033-1.256 9.727 9.727 0 011.923-.733c.62-.16 1.21-.23 1.772-.209a4.71 4.71 0 011.597.326c1.91.761 1.51 2.127-1.2 4.096zm-1.156-.361c2.257-1.64 2.769-2.705 1.537-3.197-1.3-.518-3.098.058-5.394 1.727-2.142 1.557-2.576 2.589-1.302 3.097 1.257.501 2.977-.041 5.16-1.627zm2.288 5.313l-1.04-.416 6.85-4.98c-.15.02-.35.031-.599.036a13.57 13.57 0 01-.786-.015 14.514 14.514 0 01-.858-.062 8.366 8.366 0 01-.805-.116l.918-.667c.284.051.599.094.945.128a20.385 20.385 0 002.14.088 14 14 0 00.948-.045l.394.157-8.107 5.892zm12.888.639c-.663.482-1.321.881-1.974 1.198a9.475 9.475 0 01-1.896.706 6.43 6.43 0 01-1.76.2 4.599 4.599 0 01-1.56-.316c-.458-.182-.78-.408-.966-.678-.179-.27-.223-.576-.133-.918.09-.342.315-.715.674-1.119.364-.407.86-.84 1.49-1.298a14.944 14.944 0 012.034-1.256 9.72 9.72 0 011.923-.733c.62-.16 1.21-.229 1.771-.208.57.02 1.102.128 1.598.325 1.909.762 1.509 2.127-1.201 4.096zm-1.155-.362c2.256-1.64 2.768-2.705 1.536-3.196-1.3-.518-3.097.057-5.394 1.727-2.142 1.556-2.576 2.589-1.302 3.097 1.258.501 2.977-.041 5.16-1.628zm2.288 5.313l-1.042-.415 6.852-4.98c-.151.019-.351.03-.599.035a12.69 12.69 0 01-.786-.015 14.425 14.425 0 01-.859-.062 8.342 8.342 0 01-.805-.115l.918-.667c.284.05.599.093.945.127a20.475 20.475 0 002.141.088c.349-.005.665-.02.947-.045l.394.157-8.106 5.892zM41.432 28.492c-.663.483-1.321.882-1.974 1.199a9.475 9.475 0 01-1.896.707 6.423 6.423 0 01-1.76.2 4.601 4.601 0 01-1.56-.317c-.458-.182-.78-.408-.966-.678-.179-.27-.223-.576-.133-.918.09-.342.315-.715.674-1.119.364-.407.86-.84 1.49-1.298a14.998 14.998 0 012.033-1.256 9.721 9.721 0 011.924-.733c.62-.16 1.21-.229 1.771-.208a4.72 4.72 0 011.598.325c1.909.762 1.509 2.127-1.201 4.096zm-1.155-.36c2.256-1.64 2.768-2.706 1.536-3.197-1.3-.518-3.098.057-5.394 1.727-2.142 1.556-2.576 2.589-1.302 3.097 1.258.501 2.977-.041 5.16-1.628zm2.288 5.312l-1.042-.415 6.852-4.98c-.15.02-.35.03-.6.035a14.508 14.508 0 01-1.645-.077 8.335 8.335 0 01-.804-.115l.918-.667c.284.05.6.093.945.128a20.49 20.49 0 002.141.088c.35-.006.665-.022.948-.046l.393.157-8.106 5.892zm12.887.639c-.663.482-1.321.882-1.973 1.199a9.463 9.463 0 01-1.897.706 6.426 6.426 0 01-1.76.2 4.601 4.601 0 01-1.56-.317c-.457-.182-.78-.408-.966-.677-.178-.27-.223-.577-.133-.918.09-.342.315-.715.675-1.12.363-.406.86-.839 1.49-1.297a14.68 14.68 0 012.033-1.256 9.723 9.723 0 011.923-.733c.62-.16 1.21-.23 1.772-.209a4.72 4.72 0 011.597.326c1.909.761 1.509 2.127-1.2 4.096zm-1.155-.361c2.256-1.64 2.768-2.705 1.536-3.197-1.3-.518-3.097.058-5.394 1.727-2.142 1.557-2.576 2.59-1.301 3.097 1.257.502 2.977-.04 5.159-1.627zm2.288 5.313l-1.041-.416 6.85-4.98c-.15.02-.35.031-.598.036-.241.003-.503-.002-.786-.015a14.424 14.424 0 01-.859-.062 8.31 8.31 0 01-.804-.116l.918-.667c.283.051.599.094.945.128a20.38 20.38 0 002.14.088c.35-.006.665-.021.948-.045l.393.157-8.106 5.892zm12.887.639a13.12 13.12 0 01-1.973 1.198 9.473 9.473 0 01-1.896.707 6.422 6.422 0 01-1.761.2 4.6 4.6 0 01-1.56-.317c-.457-.182-.779-.408-.965-.678-.18-.27-.224-.576-.134-.918.09-.341.315-.715.675-1.119.363-.407.86-.84 1.49-1.298.693-.503 1.37-.922 2.033-1.255a9.72 9.72 0 011.923-.733c.62-.16 1.21-.23 1.772-.209a4.71 4.71 0 011.597.326c1.91.76 1.509 2.126-1.2 4.096zm-1.155-.361c2.256-1.64 2.769-2.706 1.537-3.197-1.3-.518-3.098.057-5.395 1.727-2.142 1.556-2.575 2.589-1.301 3.097 1.257.501 2.977-.041 5.16-1.627zm8.166 3.156a13.12 13.12 0 01-1.974 1.198 9.473 9.473 0 01-1.896.707 6.422 6.422 0 01-1.76.2 4.601 4.601 0 01-1.56-.317c-.458-.182-.78-.408-.966-.677-.18-.27-.223-.577-.133-.919.09-.341.314-.714.674-1.119.363-.407.86-.84 1.49-1.297a14.8 14.8 0 012.033-1.256 9.721 9.721 0 011.923-.733c.62-.16 1.21-.23 1.772-.209a4.72 4.72 0 011.597.326c1.91.761 1.51 2.127-1.2 4.096zm-1.156-.361c2.257-1.64 2.769-2.705 1.537-3.197-1.3-.518-3.098.058-5.395 1.727-2.141 1.557-2.575 2.589-1.301 3.097 1.257.501 2.977-.041 5.16-1.627zm2.288 5.313l-1.041-.416 6.851-4.98c-.15.02-.35.031-.599.036-.24.003-.503-.002-.786-.015a14.514 14.514 0 01-.858-.062 8.338 8.338 0 01-.805-.116l.918-.667c.284.051.599.094.945.128a20.482 20.482 0 002.14.088c.35-.006.666-.021.948-.046l.394.157-8.107 5.892zm12.888.638a13.12 13.12 0 01-1.974 1.199 9.466 9.466 0 01-1.896.706 6.427 6.427 0 01-1.76.2 4.601 4.601 0 01-1.56-.316c-.458-.182-.78-.408-.966-.678-.179-.27-.223-.576-.133-.918.09-.342.314-.715.674-1.119.363-.407.86-.84 1.49-1.298a14.898 14.898 0 012.033-1.256 9.72 9.72 0 011.924-.733 6.152 6.152 0 011.771-.208 4.72 4.72 0 011.597.326c1.91.76 1.51 2.126-1.2 4.095zm-1.155-.36c2.256-1.64 2.768-2.706 1.536-3.197-1.3-.518-3.098.057-5.394 1.726-2.142 1.557-2.576 2.59-1.302 3.098 1.257.501 2.977-.041 5.16-1.628zm2.287 5.312l-1.04-.415 6.85-4.98c-.15.019-.35.03-.598.035-.241.004-.503-.001-.787-.015a14.424 14.424 0 01-.858-.062 8.306 8.306 0 01-.805-.115l.918-.667c.284.05.599.093.945.127a20.38 20.38 0 002.14.089c.35-.007.666-.022.948-.046l.394.157-8.107 5.892zm12.888.639c-.663.482-1.321.882-1.973 1.199a9.466 9.466 0 01-1.897.706 6.42 6.42 0 01-1.76.2 4.601 4.601 0 01-1.56-.317c-.457-.182-.78-.408-.966-.677-.179-.27-.223-.577-.133-.918.09-.342.315-.715.674-1.12.364-.406.86-.839 1.49-1.297a14.845 14.845 0 012.034-1.256 9.707 9.707 0 011.923-.733c.619-.16 1.21-.23 1.771-.209.57.02 1.102.129 1.598.326 1.909.761 1.509 2.127-1.201 4.096zm-1.155-.361c2.256-1.64 2.768-2.705 1.536-3.197-1.299-.518-3.097.058-5.394 1.727-2.142 1.557-2.576 2.59-1.302 3.097 1.258.502 2.977-.04 5.16-1.627zm2.288 5.313l-1.042-.416 6.852-4.98c-.151.02-.351.031-.599.036-.241.003-.503-.002-.786-.015a14.57 14.57 0 01-.859-.062 8.405 8.405 0 01-.805-.116l.918-.667c.284.051.599.094.945.128a20.367 20.367 0 002.141.088c.349-.006.665-.021.948-.045l.393.157-8.106 5.892zm12.887.639a13.1 13.1 0 01-1.973 1.198 9.466 9.466 0 01-1.897.707 6.425 6.425 0 01-1.76.2 4.593 4.593 0 01-1.56-.317c-.457-.182-.779-.408-.966-.678-.178-.27-.223-.576-.133-.918.09-.341.315-.715.675-1.119.363-.407.86-.84 1.49-1.298a14.817 14.817 0 012.033-1.255 9.707 9.707 0 011.923-.734 6.155 6.155 0 011.772-.208 4.72 4.72 0 011.597.326c1.909.76 1.509 2.126-1.201 4.096zm-1.155-.361c2.256-1.64 2.768-2.706 1.536-3.197-1.299-.518-3.097.057-5.394 1.727-2.142 1.556-2.576 2.589-1.301 3.097 1.257.501 2.977-.041 5.159-1.627zm2.288 5.312l-1.041-.415 6.851-4.98c-.151.02-.35.03-.599.035a12.69 12.69 0 01-.786-.014 14.401 14.401 0 01-.859-.063 8.274 8.274 0 01-.804-.115l.918-.667c.283.05.599.093.945.128a20.51 20.51 0 002.14.088c.349-.006.665-.022.948-.046l.393.157-8.106 5.892zm12.888.64a13.15 13.15 0 01-1.974 1.198 9.469 9.469 0 01-1.896.706 6.433 6.433 0 01-1.761.2 4.607 4.607 0 01-1.56-.317c-.457-.182-.779-.408-.965-.677-.179-.27-.223-.576-.134-.918.09-.342.315-.715.675-1.12.363-.406.86-.839 1.49-1.297a14.816 14.816 0 012.033-1.256 9.707 9.707 0 011.923-.733c.62-.16 1.21-.23 1.772-.209.569.02 1.102.129 1.597.326 1.909.761 1.509 2.127-1.2 4.096zm-1.156-.362c2.256-1.64 2.769-2.705 1.537-3.196-1.3-.519-3.098.057-5.395 1.726-2.141 1.557-2.575 2.59-1.301 3.097 1.257.502 2.977-.04 5.159-1.627zm8.166 3.156a13.15 13.15 0 01-1.974 1.199 9.481 9.481 0 01-1.896.706 6.429 6.429 0 01-1.761.2 4.605 4.605 0 01-1.56-.316c-.457-.183-.779-.408-.965-.678-.179-.27-.223-.576-.133-.918.09-.342.314-.715.674-1.119.363-.407.86-.84 1.49-1.298a14.816 14.816 0 012.033-1.256 9.73 9.73 0 011.923-.733 6.16 6.16 0 011.772-.208 4.71 4.71 0 011.597.326c1.909.76 1.509 2.126-1.2 4.095zm-1.156-.36c2.257-1.64 2.769-2.706 1.537-3.197-1.3-.518-3.098.057-5.395 1.726-2.141 1.557-2.575 2.59-1.301 3.098 1.257.501 2.977-.041 5.159-1.628zm8.166 3.156a13.15 13.15 0 01-1.974 1.198 9.481 9.481 0 01-1.896.707 6.425 6.425 0 01-1.761.2 4.605 4.605 0 01-1.56-.317c-.457-.182-.779-.408-.965-.677-.179-.27-.223-.577-.133-.919.09-.341.314-.714.674-1.119.363-.407.86-.84 1.491-1.297.693-.504 1.37-.923 2.032-1.256a9.755 9.755 0 011.923-.733c.62-.16 1.21-.23 1.772-.209a4.71 4.71 0 011.597.326c1.909.761 1.509 2.126-1.2 4.096zm-1.155-.361c2.256-1.64 2.768-2.706 1.536-3.197-1.3-.518-3.098.057-5.394 1.727-2.142 1.556-2.576 2.589-1.302 3.097 1.257.501 2.977-.041 5.16-1.627zm8.165 3.156c-.664.482-1.322.882-1.974 1.198a9.481 9.481 0 01-1.896.707 6.428 6.428 0 01-1.761.2 4.603 4.603 0 01-1.56-.317c-.457-.182-.779-.408-.965-.677-.179-.27-.223-.577-.133-.918.09-.342.315-.715.674-1.12.363-.407.86-.839 1.491-1.297a14.81 14.81 0 012.032-1.256 9.738 9.738 0 011.924-.733c.619-.16 1.21-.23 1.771-.209.57.02 1.102.129 1.597.326 1.91.761 1.509 2.127-1.2 4.096zm-1.155-.361c2.256-1.64 2.768-2.705 1.536-3.197-1.3-.518-3.098.058-5.394 1.727-2.142 1.557-2.576 2.59-1.302 3.097 1.257.501 2.977-.04 5.16-1.627zM26.063 39.663a13.12 13.12 0 01-1.974 1.199 9.475 9.475 0 01-1.896.706 6.423 6.423 0 01-1.76.2 4.601 4.601 0 01-1.56-.316c-.458-.183-.78-.409-.966-.678-.179-.27-.223-.577-.133-.918.09-.342.314-.715.674-1.12.363-.406.86-.839 1.49-1.297a14.898 14.898 0 012.033-1.256 9.721 9.721 0 011.923-.733c.62-.16 1.21-.23 1.772-.208.57.02 1.102.128 1.597.325 1.91.761 1.51 2.127-1.2 4.096zm-1.155-.36c2.256-1.64 2.768-2.706 1.536-3.197-1.3-.519-3.098.057-5.395 1.726-2.141 1.557-2.575 2.59-1.3 3.097 1.256.502 2.976-.04 5.159-1.627zm2.287 5.312l-1.041-.416 6.851-4.98c-.15.02-.35.031-.599.036a12.73 12.73 0 01-.786-.015 14.508 14.508 0 01-.858-.062 8.368 8.368 0 01-.805-.115l.918-.668c.284.051.599.094.945.128a20.49 20.49 0 002.14.088c.35-.006.666-.02.948-.045l.394.157-8.107 5.892zm12.888.639c-.664.482-1.321.882-1.974 1.198a9.463 9.463 0 01-1.896.707 6.426 6.426 0 01-1.76.2 4.601 4.601 0 01-1.56-.317c-.458-.182-.78-.408-.966-.677-.179-.27-.223-.577-.133-.919.09-.341.315-.714.674-1.119.363-.407.86-.84 1.49-1.297a14.8 14.8 0 012.033-1.256 9.723 9.723 0 011.924-.733c.62-.16 1.21-.23 1.771-.209a4.72 4.72 0 011.597.326c1.91.761 1.51 2.126-1.2 4.096zm-1.155-.361c2.256-1.64 2.768-2.706 1.536-3.197-1.3-.518-3.098.058-5.394 1.727-2.142 1.556-2.576 2.589-1.302 3.097 1.258.501 2.977-.041 5.16-1.627zm8.165 3.156a13.12 13.12 0 01-1.973 1.199 9.46 9.46 0 01-1.897.706 6.426 6.426 0 01-1.76.2 4.602 4.602 0 01-1.56-.317c-.457-.182-.78-.408-.966-.677-.179-.27-.223-.577-.133-.918.09-.342.315-.715.674-1.12.364-.406.86-.839 1.49-1.297a14.845 14.845 0 012.034-1.256 9.72 9.72 0 011.923-.733c.62-.16 1.21-.23 1.771-.209.57.02 1.102.129 1.598.326 1.909.761 1.509 2.127-1.2 4.096zm-1.155-.361c2.256-1.64 2.768-2.705 1.536-3.197-1.3-.518-3.097.058-5.394 1.727-2.142 1.557-2.576 2.59-1.302 3.097 1.258.502 2.977-.04 5.16-1.627zm2.288 5.313l-1.042-.416 6.852-4.98c-.15.02-.35.031-.6.036a13.52 13.52 0 01-.785-.015 14.424 14.424 0 01-.859-.062 8.303 8.303 0 01-.805-.116l.918-.667c.284.051.6.094.945.128a20.38 20.38 0 002.141.088c.35-.006.665-.021.947-.045l.394.157L48.226 53zm12.887.639a13.12 13.12 0 01-1.973 1.198 9.475 9.475 0 01-1.897.707 6.423 6.423 0 01-1.76.2 4.601 4.601 0 01-1.56-.317c-.457-.182-.78-.408-.966-.678-.178-.27-.223-.576-.133-.918.09-.342.315-.715.675-1.119.363-.407.86-.84 1.49-1.298.693-.503 1.37-.922 2.033-1.255a9.721 9.721 0 011.923-.734 6.16 6.16 0 011.772-.208 4.71 4.71 0 011.597.326c1.909.76 1.509 2.126-1.2 4.096zm-1.155-.361c2.256-1.64 2.768-2.706 1.536-3.197-1.3-.518-3.097.057-5.394 1.727-2.142 1.556-2.575 2.589-1.301 3.097 1.257.501 2.977-.041 5.16-1.627zm2.288 5.312l-1.041-.415 6.85-4.98c-.15.02-.35.03-.598.035a14.514 14.514 0 01-1.645-.077 8.37 8.37 0 01-.804-.115l.918-.667c.284.05.599.093.945.128a20.482 20.482 0 002.14.088 14 14 0 00.948-.046l.393.157-8.106 5.892zm12.887.64c-.663.481-1.32.88-1.973 1.198a9.466 9.466 0 01-1.896.706 6.427 6.427 0 01-1.76.2 4.601 4.601 0 01-1.56-.316c-.458-.183-.78-.409-.966-.678-.18-.27-.224-.577-.133-.918.09-.342.314-.715.674-1.12.363-.406.86-.839 1.49-1.297.693-.504 1.37-.922 2.033-1.256a9.72 9.72 0 011.923-.733c.62-.16 1.21-.23 1.772-.209a4.72 4.72 0 011.597.326c1.91.761 1.51 2.127-1.2 4.096zm-1.155-.362c2.256-1.64 2.769-2.705 1.537-3.196-1.3-.519-3.098.057-5.395 1.726-2.142 1.557-2.575 2.59-1.301 3.097 1.257.502 2.977-.04 5.16-1.627zm2.288 5.313l-1.041-.416 6.851-4.98c-.15.02-.35.031-.599.036-.24.003-.503-.001-.786-.015a14.424 14.424 0 01-.858-.062 8.306 8.306 0 01-.805-.115l.918-.668c.284.051.599.094.945.128a20.38 20.38 0 002.14.088c.35-.006.665-.02.948-.045l.394.157-8.107 5.892zm12.888.639a13.12 13.12 0 01-1.974 1.198 9.473 9.473 0 01-1.896.707 6.422 6.422 0 01-1.76.2 4.6 4.6 0 01-1.56-.317c-.458-.182-.78-.408-.966-.677-.179-.27-.223-.577-.133-.919.09-.341.314-.714.674-1.119.363-.407.86-.84 1.49-1.297a14.8 14.8 0 012.033-1.256 9.72 9.72 0 011.923-.733c.62-.16 1.21-.23 1.772-.209a4.71 4.71 0 011.597.326c1.91.761 1.51 2.126-1.2 4.096zm-1.155-.361c2.256-1.64 2.768-2.706 1.536-3.197-1.3-.518-3.098.058-5.394 1.727-2.142 1.556-2.576 2.589-1.302 3.097 1.257.501 2.977-.041 5.16-1.627zm2.287 5.312l-1.04-.415 6.85-4.98c-.15.02-.35.031-.599.035a14.508 14.508 0 01-1.644-.077 8.373 8.373 0 01-.805-.115l.918-.667c.284.05.599.094.945.128a20.38 20.38 0 002.14.088c.35-.006.666-.021.948-.046l.394.157-8.107 5.892zM10.693 50.834c-.663.482-1.321.882-1.973 1.198a9.473 9.473 0 01-1.896.707 6.422 6.422 0 01-1.761.2 4.6 4.6 0 01-1.56-.317c-.457-.182-.779-.408-.966-.677-.178-.27-.223-.577-.133-.919.09-.341.315-.714.675-1.119.363-.406.86-.84 1.49-1.297a14.68 14.68 0 012.033-1.256 9.727 9.727 0 011.923-.733c.62-.16 1.21-.23 1.772-.209.57.02 1.102.129 1.597.326 1.91.761 1.509 2.127-1.2 4.096zm-1.155-.361c2.256-1.64 2.768-2.705 1.537-3.197-1.3-.518-3.098.058-5.395 1.727-2.142 1.557-2.575 2.589-1.3 3.097 1.257.501 2.977-.041 5.16-1.627zm2.288 5.313l-1.041-.416 6.851-4.98c-.15.02-.35.031-.599.036-.24.003-.503-.002-.786-.015a14.508 14.508 0 01-.858-.062 8.368 8.368 0 01-.805-.116l.918-.667c.284.051.599.094.945.128a20.49 20.49 0 002.14.088c.35-.006.665-.021.948-.045l.394.157-8.107 5.892zm12.888.638a13.13 13.13 0 01-1.974 1.199 9.466 9.466 0 01-1.896.706 6.426 6.426 0 01-1.76.2 4.601 4.601 0 01-1.56-.316c-.458-.182-.78-.408-.966-.678-.179-.27-.223-.576-.133-.918.09-.342.314-.715.674-1.119.363-.407.86-.84 1.49-1.298a14.898 14.898 0 012.033-1.256 9.723 9.723 0 011.923-.733 6.16 6.16 0 011.772-.208 4.72 4.72 0 011.597.325c1.91.762 1.51 2.127-1.2 4.096zm-1.156-.36c2.256-1.64 2.769-2.706 1.537-3.197-1.3-.518-3.098.057-5.394 1.727-2.142 1.556-2.576 2.589-1.302 3.097 1.257.501 2.977-.041 5.16-1.628zm2.288 5.312l-1.041-.415 6.851-4.98c-.15.019-.35.03-.599.035a14.424 14.424 0 01-1.645-.077 8.31 8.31 0 01-.804-.115l.918-.667c.284.05.599.093.945.128a20.489 20.489 0 002.14.088c.35-.006.666-.022.948-.046l.394.157-8.107 5.892zm12.888.639a13.12 13.12 0 01-1.974 1.199 9.467 9.467 0 01-1.896.706 6.422 6.422 0 01-1.76.2 4.6 4.6 0 01-1.56-.317c-.458-.182-.78-.408-.966-.677-.179-.27-.223-.577-.133-.918.09-.342.314-.715.674-1.12.364-.406.86-.839 1.49-1.297a14.898 14.898 0 012.033-1.256 9.718 9.718 0 011.924-.733c.619-.16 1.21-.23 1.771-.209.57.02 1.102.129 1.597.326 1.91.761 1.51 2.127-1.2 4.096zm-1.155-.361c2.256-1.64 2.768-2.705 1.536-3.197-1.3-.518-3.098.058-5.394 1.727-2.142 1.557-2.576 2.59-1.302 3.097 1.258.502 2.977-.04 5.16-1.627zm2.288 5.313l-1.042-.416 6.851-4.98c-.15.02-.35.031-.599.036a13.57 13.57 0 01-.786-.015 14.514 14.514 0 01-.858-.062 8.303 8.303 0 01-.805-.116l.918-.667c.284.051.6.094.945.128a20.373 20.373 0 002.14.088c.35-.006.666-.021.948-.045l.394.157-8.106 5.892z" fill="#FA4747" fill-opacity=".12"/></svg>